#!OML:ASF H:\BabyWalks\Project 1\Capture day 1\Session 1\baby.ASF
:FULLY-SPECIFIED
:DEGREES
174
root -29.5691 17.2112 -1.88059 -5.73893 86.9714 -15.2426
lowerback 21.7851 -2.36211 5.38869
upperback 5.75822 -0.967408 5.44324
thorax -5.87104 -0.293216 3.06508
lowerneck 1.08841 3.9116 9.55075
upperneck -19.6412 3.42595 -20.5089
head -5.30906 2.78605 -8.52699
rclavicle -3.18055e-015 1.11319e-014
rhumerus -42.1809 8.16302 -79.889
rradius 55.1458
rwrist -4.93029
rhand -11.5562 -15.3767
rfingers 7.12502
rthumb 14.4847 -44.8511
lclavicle -3.18055e-015 1.11319e-014
lhumerus -45.7056 -8.09427 86.1385
lradius 60.2314
lwrist 9.48853
lhand -3.1877 10.3092
lfingers 7.12502
lthumb 22.5338 39.0142
rfemur -26.3264 20.1744 16.2071
rtibia 42.746
rfoot -24.9711 1.76664
rtoes -9.80193
lfemur -27.6717 6.8737 -11.4505
ltibia 67.4357
lfoot -21.7791 -22.5716
ltoes -11.2737
175
root -29.4908 17.2116 -1.88513 -9.43168 87.3096 -18.8435
lowerback 21.7816 -2.28167 5.53104
upperback 5.76901 -0.829004 5.44513
thorax -5.86152 -0.225255 2.94892
lowerneck 1.1718 3.98765 9.53139
upperneck -19.6091 3.54059 -20.546
head -5.29473 2.85133 -8.53844
rclavicle -8.74653e-015 -4.92986e-014
rhumerus -42.2282 8.25172 -79.9024
rradius 55.3707
rwrist -5.07398
rhand -11.591 -15.4121
rfingers 7.12502
rthumb 14.4511 -44.8889
lclavicle -8.74653e-015 -4.92986e-014
lhumerus -45.8132 -7.95972 86.0065
lradius 60.098
lwrist 9.53715
lhand -3.40445 10.3411
lfingers 7.12502
lthumb 22.3258 39.0712
rfemur -25.7617 19.7924 16.4911
rtibia 42.6533
rfoot -25.1914 1.69022
rtoes -10.023
lfemur -28.4986 7.1978 -11.2457
ltibia 67.1507
lfoot -22.2872 -22.2148
ltoes -12.1025
176
root -29.4126 17.2128 -1.88996 -14.2385 87.6587 -23.5653
lowerback 21.7687 -2.20123 5.65437
upperback 5.77276 -0.696441 5.44151
thorax -5.85393 -0.160388 2.83903
lowerneck 1.26274 4.06144 9.51285
upperneck -19.5807 3.65344 -20.5711
head -5.28365 2.91508 -8.5463
rclavicle 7.95139e-016 -3.02153e-014
rhumerus -42.2719 8.31007 -79.903
rradius 55.5305
rwrist -5.21032
rhand -11.6275 -15.4584
rfingers 7.12502
rthumb 14.4159 -44.9377
lclavicle 7.95139e-016 -3.02153e-014
lhumerus -45.9245 -7.82875 85.8673
lradius 59.9412
lwrist 9.55474
lhand -3.56523 10.3836
lfingers 7.12502
lthumb 22.1714 39.1321
rfemur -25.1877 19.4043 16.7637
rtibia 42.5243
rfoot -25.386 1.61579
rtoes -10.1964
lfemur -29.3191 7.4839 -11.0556
ltibia 66.7323
lfoot -22.7039 -21.9168
ltoes -12.8043
177
root -29.3329 17.2152 -1.89569 -20.5342 87.9827 -29.7595
lowerback 21.7587 -2.11433 5.76125
upperback 5.77991 -0.560234 5.42773
thorax -5.84338 -0.0937197 2.72644
lowerneck 1.35994 4.13022 9.49448
upperneck -19.5566 3.76085 -20.5806
head -5.2765 2.97521 -8.54923
rclavicle -2.22639e-014 1.43125e-014
rhumerus -42.311 8.33942 -79.8938
rradius 55.6224
rwrist -5.33182
rhand -11.6664 -15.5246
rfingers 7.12502
rthumb 14.3785 -45.0066
lclavicle -2.22639e-014 1.43125e-014
lhumerus -46.0383 -7.70316 85.7198
lradius 59.7573
lwrist 9.53072
lhand -3.67151 10.4235
lfingers 7.12502
lthumb 22.0694 39.1842
rfemur -24.5725 19.0347 17.0326
rtibia 42.3552
rfoot -25.5621 1.55531
rtoes -10.298
lfemur -30.0815 7.75125 -10.8773
ltibia 66.1748
lfoot -23.0348 -21.7145
ltoes -13.5287
178
root -29.2532 17.2186 -1.90253 -29.0892 88.2822 -38.2254
lowerback 21.7399 -2.02482 5.85568
upperback 5.77824 -0.425564 5.40447
thorax -5.83732 -0.0283279 2.61101
lowerneck 1.45829 4.1925 9.47075
upperneck -19.5342 3.86071 -20.5718
head -5.27229 3.03057 -8.54493
rclavicle 2.38542e-015 -1.11319e-014
rhumerus -42.3479 8.3477 -79.8784
rradius 55.6518
rwrist -5.42668
rhand -11.7144 -15.593
rfingers 7.12502
rthumb 14.3322 -45.0783
lclavicle 2.38542e-015 -1.11319e-014
lhumerus -46.155 -7.58303 85.5643
lradius 59.5438
lwrist 9.46304
lhand -3.72956 10.4606
lfingers 7.12502
lthumb 22.0136 39.2278
rfemur -23.9572 18.666 17.2825
rtibia 42.1494
rfoot -25.7039 1.53211
rtoes -10.2781
lfemur -30.8345 7.98586 -10.7201
ltibia 65.4877
lfoot -23.265 -21.6069
ltoes -14.0269
179
root -29.1726 17.2229 -1.91019 -41.1258 88.5376 -50.1754
lowerback 21.6895 -1.92939 5.92388
upperback 5.78765 -0.292756 5.38256
thorax -5.80203 0.0368672 2.51138
lowerneck 1.55823 4.24115 9.44099
upperneck -19.5245 3.94116 -20.552
head -5.27611 3.07662 -8.53653
rclavicle 1.03368e-014 2.54444e-014
rhumerus -42.3603 8.33679 -79.8425
rradius 55.6174
rwrist -5.48158
rhand -11.7735 -15.6646
rfingers 7.12502
rthumb 14.2752 -45.1539
lclavicle 1.03368e-014 2.54444e-014
lhumerus -46.2515 -7.46699 85.4108
lradius 59.3001
lwrist 9.34758
lhand -3.7339 10.4863
lfingers 7.12502
lthumb 22.0095 39.254
rfemur -23.322 18.3037 17.523
rtibia 41.9002
rfoot -25.837 1.49881
rtoes -10.2666
lfemur -31.559 8.18113 -10.5786
ltibia 64.671
lfoot -23.4199 -21.5889
ltoes -14.6113
180
root -29.0918 17.2282 -1.91874 -58.0789 88.7154 -67.0581
lowerback 21.6306 -1.83737 5.98319
upperback 5.78302 -0.167809 5.35535
thorax -5.77712 0.0975943 2.41347
lowerneck 1.65173 4.27815 9.41292
upperneck -19.5061 4.00695 -20.5204
head -5.27898 3.11356 -8.52345
rclavicle 1.59028e-014 1.09729e-013
rhumerus -42.3726 8.3092 -79.8018
rradius 55.5177
rwrist -5.49034
rhand -11.8371 -15.7298
rfingers 7.12502
rthumb 14.214 -45.2234
lclavicle 1.59028e-014 1.09729e-013
lhumerus -46.359 -7.3622 85.2549
lradius 59.0291
lwrist 9.19491
lhand -3.70026 10.5139
lfingers 7.12502
lthumb 22.0418 39.2778
rfemur -22.6831 17.9366 17.7515
rtibia 41.6047
rfoot -25.9496 1.47005
rtoes -10.2346
lfemur -32.2802 8.32791 -10.4561
ltibia 63.7314
lfoot -23.478 -21.6257
ltoes -14.9979
181
root -29.0094 17.2347 -1.92848 -78.2844 88.7492 -87.1941
lowerback 21.5549 -1.7412 6.03134
upperback 5.77995 -0.042351 5.32528
thorax -5.74141 0.158685 2.31845
lowerneck 1.73594 4.30117 9.3807
upperneck -19.4821 4.05457 -20.4733
head -5.28229 3.13992 -8.50345
rclavicle -9.54166e-015 -4.92986e-014
rhumerus -42.3795 8.2647 -79.7518
rradius 55.362
rwrist -5.45139
rhand -11.9016 -15.7921
rfingers 7.12502
rthumb 14.1518 -45.2901
lclavicle -9.54166e-015 -4.92986e-014
lhumerus -46.4676 -7.27173 85.1025
lradius 58.7339
lwrist 9.01018
lhand -3.6442 10.5224
lfingers 7.12502
lthumb 22.0956 39.2799
rfemur -22.015 17.5789 17.9804
rtibia 41.2539
rfoot -26.0445 1.44279
rtoes -10.1932
lfemur -32.9602 8.44119 -10.3431
ltibia 62.6723
lfoot -23.4747 -21.6777
ltoes -15.3027
182
root -28.9254 17.243 -1.93958 -97.442 88.621 -106.286
lowerback 21.4742 -1.64708 6.07968
upperback 5.76891 0.0792213 5.28881
thorax -5.71126 0.217431 2.21777
lowerneck 1.8052 4.31194 9.34235
upperneck -19.4389 4.08774 -20.4057
head -5.28045 3.1563 -8.47332
rclavicle -1.66979e-014 -8.5875e-014
rhumerus -42.3882 8.20713 -79.7008
rradius 55.1477
rwrist -5.36829
rhand -11.9579 -15.8576
rfingers 7.12502
rthumb 14.0976 -45.3594
lclavicle -1.66979e-014 -8.5875e-014
lhumerus -46.5932 -7.19611 84.951
lradius 58.4191
lwrist 8.80017
lhand -3.57563 10.5343
lfingers 7.12502
lthumb 22.1614 39.284
rfemur -21.3156 17.2255 18.212
rtibia 40.8386
rfoot -26.1162 1.40967
rtoes -10.1561
lfemur -33.6015 8.51415 -10.2402
ltibia 61.4982
lfoot -23.4069 -21.6922
ltoes -15.4814
